<svg width="32" height="32" viewBox="0 0 32 32" fill="none" xmlns="http://www.w3.org/2000/svg">
<path fill-rule="evenodd" clip-rule="evenodd" d="M23.3883 25.651C20.9248 27.6216 17.8 28.8 14.4 28.8C6.44708 28.8 0 22.3529 0 14.4C0 6.44708 6.44708 0 14.4 0C22.3529 0 28.8 6.44708 28.8 14.4C28.8 17.8 27.6216 20.9248 25.651 23.3883L31.5314 29.2686C32.1562 29.8934 32.1562 30.9065 31.5314 31.5314C30.9065 32.1562 29.8934 32.1562 29.2686 31.5314L23.3883 25.651ZM25.6 14.4C25.6 20.5856 20.5856 25.6 14.4 25.6C8.2144 25.6 3.2 20.5856 3.2 14.4C3.2 8.2144 8.2144 3.2 14.4 3.2C20.5856 3.2 25.6 8.2144 25.6 14.4Z" fill="#2A1C1B"/>
</svg>
