<svg width="60" height="57" viewBox="0 0 60 57" fill="none" xmlns="http://www.w3.org/2000/svg">
<mask id="path-1-inside-1_292_4" fill="white">
<path d="M29.9647 0L40.1503 17.366L59.9294 21.6193L46.4453 36.6054L48.4839 56.6L29.9647 48.4959L11.4455 56.6L13.4841 36.6054L0 21.6193L19.7791 17.366L29.9647 0Z"/>
</mask>
<path d="M29.9647 0L30.8273 -0.505924L29.9647 -1.97658L29.1021 -0.505924L29.9647 0ZM40.1503 17.366L39.2877 17.8719L39.5101 18.2512L39.94 18.3436L40.1503 17.366ZM59.9294 21.6193L60.6728 22.2881L61.8277 21.0046L60.1396 20.6416L59.9294 21.6193ZM46.4453 36.6054L45.7019 35.9365L45.4055 36.2659L45.4504 36.7068L46.4453 36.6054ZM48.4839 56.6L48.083 57.5161L49.6525 58.2029L49.4787 56.4986L48.4839 56.6ZM29.9647 48.4959L30.3656 47.5798L29.9647 47.4044L29.5638 47.5798L29.9647 48.4959ZM11.4455 56.6L10.4507 56.4986L10.2769 58.2029L11.8464 57.5161L11.4455 56.6ZM13.4841 36.6054L14.479 36.7068L14.5239 36.2659L14.2275 35.9365L13.4841 36.6054ZM0 21.6193L-0.210235 20.6416L-1.89826 21.0046L-0.743377 22.2881L0 21.6193ZM19.7791 17.366L19.9894 18.3436L20.4193 18.2512L20.6417 17.8719L19.7791 17.366ZM29.1021 0.505924L39.2877 17.8719L41.0128 16.86L30.8273 -0.505924L29.1021 0.505924ZM39.94 18.3436L59.7192 22.5969L60.1396 20.6416L40.3605 16.3883L39.94 18.3436ZM59.186 20.9504L45.7019 35.9365L47.1887 37.2742L60.6728 22.2881L59.186 20.9504ZM45.4504 36.7068L47.4891 56.7014L49.4787 56.4986L47.4401 36.5039L45.4504 36.7068ZM48.8848 55.6839L30.3656 47.5798L29.5638 49.4121L48.083 57.5161L48.8848 55.6839ZM29.5638 47.5798L11.0446 55.6839L11.8464 57.5161L30.3656 49.4121L29.5638 47.5798ZM12.4403 56.7014L14.479 36.7068L12.4893 36.5039L10.4507 56.4986L12.4403 56.7014ZM14.2275 35.9365L0.743377 20.9504L-0.743377 22.2881L12.7407 37.2742L14.2275 35.9365ZM0.210235 22.5969L19.9894 18.3436L19.5689 16.3883L-0.210235 20.6416L0.210235 22.5969ZM20.6417 17.8719L30.8273 0.505924L29.1021 -0.505924L18.9166 16.86L20.6417 17.8719Z" fill="#9F9F9F" mask="url(#path-1-inside-1_292_4)"/>
</svg>
